<svg xmlns="http://www.w3.org/2000/svg" width="0" height="0">

	<defs>
		<filter id="xx142b2-distort">
			<feTurbulence baseFrequency="0.03 0.075" result="noise" numOctaves="3" />
			<feDisplacementMap in="SourceGraphic" in2="noise" scale="12" xChannelSelector="R" yChannelSelector="R"/>
		</filter>
	</defs>

	<svg id="icon-arrow-left" viewBox="0 0 51 51">
		<style type="text/css">
			.st0{fill:#ddf;}
		</style>
		<polygon class="st0" points="41,21 2,4 12,21 2,39 "/>
	</svg>

	<svg id="icon-arrow-right" viewBox="0 0 51 51">
		<style type="text/css">
			.st0{fill:#ddf;}
		</style>
		<polygon class="st0" points="2,22 41,39 31,22 41,4 "/>
	</svg>

	<svg id="icon-arrow-up" viewBox="0 0 51 51">
		<style type="text/css">
			.st0{fill:#ddf;}
		</style>
		<polygon class="st0" points="21,2 4,41 21,31 39,41 "/>
	</svg>

	<svg id="icon-arrow-down" viewBox="0 0 51 51">
		<style type="text/css">
			.st0{fill:#ddf;}
		</style>
		<polygon class="st0" points="22,41 39,2 22,12 4,2 "/>
	</svg>

	<svg id="icon-escape" viewBox="0 0 51 51">
		<style type="text/css">
			.st0{fill:#ddf;}
		</style>
		<path class="st0" d="M4.4,13.7h10.3v4.7h-4.1v4.5h3.8v4.5h-3.8v5.2H15v4.7H4.4V13.7z"/>
		<path class="st0" d="M29.8,20.8h-5.7v-1.8c0-0.8-0.1-1.3-0.2-1.6c-0.1-0.2-0.4-0.3-0.7-0.3c-0.4,0-0.7,0.2-0.8,0.5C22.1,17.9,22,18.4,22,19
			c0,0.8,0.1,1.4,0.3,1.8c0.2,0.4,0.8,0.9,1.7,1.4c2.7,1.6,4.5,3,5.2,4c0.7,1,1.1,2.7,1.1,5c0,1.7-0.2,2.9-0.6,3.7s-1.2,1.5-2.3,2
			c-1.1,0.5-2.4,0.8-3.9,0.8c-1.6,0-3.1-0.3-4.2-0.9c-1.2-0.6-1.9-1.4-2.3-2.4c-0.4-1-0.5-2.3-0.5-4.1v-1.5h5.7v2.9
			c0,0.9,0.1,1.5,0.2,1.7c0.2,0.3,0.4,0.4,0.9,0.4s0.7-0.2,0.9-0.5c0.2-0.3,0.3-0.8,0.3-1.4c0-1.4-0.2-2.3-0.6-2.7
			c-0.4-0.4-1.3-1.1-2.9-2.1c-1.5-1-2.5-1.7-3-2.2c-0.5-0.5-0.9-1.1-1.2-1.9s-0.5-1.8-0.5-3.1c0-1.8,0.2-3.1,0.7-4
			c0.5-0.8,1.2-1.5,2.2-2s2.3-0.7,3.7-0.7c1.6,0,3,0.3,4.1,0.8c1.1,0.5,1.9,1.2,2.2,2s0.5,2.1,0.5,4V20.8z"/>
		<path class="st0" d="M46.6,24h-6.2v-4.1c0-1.2-0.1-1.9-0.2-2.2c-0.1-0.3-0.4-0.4-0.9-0.4c-0.5,0-0.8,0.2-1,0.5c-0.1,0.4-0.2,1.1-0.2,2.3v11
			c0,1.1,0.1,1.9,0.2,2.2c0.1,0.4,0.4,0.5,0.9,0.5c0.5,0,0.8-0.2,0.9-0.5c0.1-0.4,0.2-1.2,0.2-2.5v-3h6.2v0.9c0,2.4-0.2,4.2-0.5,5.2
			s-1.1,1.9-2.3,2.7s-2.6,1.2-4.4,1.2c-1.8,0-3.3-0.3-4.5-1s-1.9-1.6-2.3-2.7s-0.6-2.9-0.6-5.2V22c0-1.7,0.1-3,0.2-3.8s0.5-1.7,1-2.5
			c0.6-0.8,1.4-1.4,2.4-1.9c1-0.5,2.2-0.7,3.5-0.7c1.8,0,3.3,0.4,4.5,1.1c1.2,0.7,2,1.6,2.3,2.6c0.4,1,0.6,2.7,0.6,4.9V24z"/>
	</svg>

	<svg id="icon-backspace" viewBox="0 0 51 51">
		<style type="text/css">
			.st0{fill:#ddf;fill-rule:evenodd;clip-rule:evenodd;}
		</style>
		<path class="st0" d="M44.6,10.3H17.8c-0.9,0-1.8,0.3-2.4,1L4,23.2c-1.2,1.3-1.2,3.3,0,4.6l11.4,11.9c0.7,0.7,1.4,1,2.4,1h26.8
			c1.9,0,3.3-1.4,3.3-3.3V13.7C47.9,11.8,46.4,10.3,44.6,10.3L44.6,10.3z M44.6,37.3H17.8L6.4,25.4l11.4-11.9h26.8V37.3L44.6,37.3z
			 M23,32.3c0.3,0.3,0.8,0.4,1.2,0.4s0.9-0.1,1.2-0.4l4.5-4.5l4.5,4.5c0.3,0.3,0.8,0.4,1.2,0.4s0.9-0.1,1.2-0.4
			c0.7-0.7,0.7-1.6,0-2.3l-4.5-4.5l4.5-4.5c0.7-0.7,0.7-1.6,0-2.3s-1.6-0.7-2.3,0L30,23.2l-4.5-4.5c-0.7-0.7-1.6-0.7-2.3,0
			c-0.7,0.7-0.7,1.6,0,2.3l4.5,4.5L23.2,30C22.3,30.7,22.3,31.7,23,32.3L23,32.3z"/>
	</svg>

</svg>